<svg width="830" height="844" viewBox="0 0 830 844" fill="none" xmlns="http://www.w3.org/2000/svg">
<path d="M387.644 24.9333C376.969 25.7333 351.348 29.5999 338.271 32.1333C235.789 52.6666 148.385 109.467 89.6714 193.6C53.9094 244.933 33.7599 294.4 21.6168 361.333C18.4142 379.333 18.1473 383.467 18.1473 420C18.0139 462.8 18.8145 471.467 26.9544 508.667C34.4271 543.6 50.0396 584.667 65.7856 610.933L72.7245 622.533L100.88 636.533C127.835 649.733 149.586 661.6 170.403 674.267L180.144 680.133L192.421 678C218.442 673.467 229.117 668.667 242.995 654.8C251.001 646.8 254.471 642 259.408 632L265.813 619.333L262.343 618.933C256.872 618.267 239.258 623.6 226.848 629.6C217.107 634.4 213.237 637.467 199.626 650.933C190.819 659.6 183.213 666.267 182.679 665.733C180.811 663.733 178.543 641.867 179.477 633.333C181.078 616.8 179.877 618.133 195.89 614C225.247 606.4 240.86 598.933 254.737 586C261.81 579.333 274.887 561.6 274.887 558.533C274.887 555.467 254.737 558.133 242.995 562.667C229.917 567.733 221.244 573.467 202.295 589.333C185.348 603.733 185.482 604 198.159 576L206.832 556.667L218.308 550.8C234.188 542.667 243.929 533.333 251.134 519.333C254.204 513.2 256.472 507.867 256.205 507.6C254.737 506.133 240.326 509.733 232.453 513.6C222.845 518.133 212.437 527.867 204.163 540C201.228 544.4 198.425 548 198.025 548C197.625 548 195.49 546.933 193.488 545.733C190.686 544.133 188.417 540.4 184.948 532C181.745 524.4 178.276 518.533 174.54 514.8C168.935 508.933 156.525 502.267 148.252 500.8L143.715 500L144.516 504.933C145.85 512.533 154.123 528.267 160.795 535.733C164.398 539.733 172.004 545.6 179.477 550C186.416 554.133 192.154 557.733 192.154 558.133C192.154 558.4 189.885 563.333 187.083 569.067C184.281 574.667 180.278 583.333 178.143 588.267C176.141 593.333 173.872 597.333 173.339 597.333C172.671 597.333 171.871 595.733 171.337 593.6C166.533 571.6 163.998 566.533 153.056 555.067C145.983 547.733 134.241 538.667 131.705 538.667C131.171 538.667 130.771 543.067 130.771 548.4C130.771 570.667 141.98 590.933 162.263 604.8C168.935 609.467 169.602 610.267 169.069 614C168.802 616.133 167.734 624 166.667 631.333C165.733 638.667 164.798 644.933 164.532 645.2C164.398 645.467 158.927 640.667 152.388 634.533C135.175 618.267 120.496 610.4 103.816 608.4C97.411 607.6 97.1441 607.467 92.2068 598.8C87.0026 589.867 70.456 555.2 68.7213 549.6C67.9206 546.933 78.4624 536 159.594 455.067L251.401 363.467L278.623 391.467C311.583 425.2 336.27 451.733 336.27 453.333C336.27 454.4 319.589 474.133 312.25 481.867C309.982 484.267 309.315 483.733 292.368 466.533L275.02 448.667L270.216 454C261.676 463.6 260.742 461.467 283.961 486.133C295.437 498.533 307.58 511.467 310.916 515.067L316.921 521.467L333.467 503.733C350.281 485.733 383.374 450.933 407.66 425.333C414.999 417.6 429.411 402.267 439.686 391.333C449.827 380.267 463.705 365.6 470.377 358.667C486.924 341.333 524.421 301.6 536.43 288.667C541.901 282.8 547.639 276.933 548.974 275.467C551.509 272.933 551.776 273.2 570.324 292.133C580.733 302.8 595.411 318 603.151 326C620.231 344 645.585 370.267 671.205 396.667C681.881 407.6 704.165 430.8 720.578 447.867C737.125 465.067 756.874 485.733 764.48 493.6C772.086 501.467 779.159 509.067 780.093 510.533C781.561 512.667 780.893 516.267 775.156 536C767.016 564.133 758.742 588.4 755.54 593.6C753.805 596.533 751.136 598.267 744.598 600.4C727.517 606.133 714.707 616.133 701.229 634.533L693.223 645.2L691.622 634.267C690.821 628.267 688.553 619.2 686.684 614.133L683.348 604.8L693.623 594C707.234 579.6 714.707 564.533 717.91 545.067C719.511 534.8 719.644 515.067 718.043 514.133C716.175 512.933 705.5 520.533 698.561 528.133C686.818 541.067 680.68 556.4 678.678 578C678.144 583.067 677.477 588.8 677.077 590.533C676.41 593.6 676.143 593.467 672.94 587.867C671.072 584.667 665.334 575.2 660.13 566.933L650.922 551.733L660.263 543.2C676.81 528.133 685.35 512.533 688.553 491.2C690.154 480.8 689.353 459.467 687.218 456.133C685.617 453.467 680.146 457.733 671.205 468.4C657.995 484 651.59 500.667 650.255 522.933C649.455 535.467 649.321 536 644.918 540.267L640.381 544.667L637.445 540.667C620.765 517.733 591.408 496.267 573.527 493.867L567.389 492.933L568.456 498.267C574.328 524.4 596.078 545.067 624.501 551.867C630.506 553.333 635.577 554.667 635.71 554.933C646.519 571.333 661.865 597.867 661.865 600C661.865 602.667 659.329 601.2 642.382 588.667C617.162 570.133 601.149 562.933 579.532 560.533C572.593 559.867 571.125 560 571.125 561.6C571.125 564.667 583.401 580.267 592.075 587.867C606.887 601.2 637.712 613.067 663.733 615.467L673.607 616.4L675.742 623.867C678.278 632.8 678.545 652.133 676.41 660.8C675.609 664 674.541 666.667 674.008 666.667C673.474 666.667 670.405 662.933 667.202 658.533C650.389 635.467 627.037 621.6 601.416 619.2C589.139 618.133 589.006 618.533 595.945 630.133C612.758 658 635.577 674.4 662.532 678.133C666.268 678.533 669.871 679.6 670.672 680.267C671.739 681.067 681.08 675.6 698.694 663.867C724.848 646.667 736.591 640 748.734 635.467C754.606 633.2 755.406 632.267 764.48 616.667C802.244 552.133 821.459 472.4 816.789 399.6C810.517 301.333 769.818 210.667 700.562 141.2C634.509 74.9333 548.974 35.1999 451.162 25.3333C438.618 24.1333 400.588 23.8666 387.644 24.9333ZM462.237 66.2666C463.172 72.6666 462.504 73.0666 455.966 69.8666C449.961 66.7999 449.961 66.7999 455.032 62.6666C457.567 60.5333 460.102 59.1999 460.503 59.7333C461.036 60.2666 461.704 63.1999 462.237 66.2666ZM350.948 67.3333C351.749 68.3999 352.282 70.2666 352.016 71.5999C351.348 74.9333 345.21 74.9333 344.543 71.5999C343.475 65.9999 347.612 63.1999 350.948 67.3333ZM412.064 71.4666C412.998 72.1333 407.794 79.8666 405.926 80.6666C403.39 81.5999 403.524 81.7333 402.59 74.9333L401.922 69.1999L406.726 70.1333C409.528 70.6666 411.93 71.1999 412.064 71.4666ZM501.736 74.9333C506.807 78.6666 506.807 81.9999 501.736 84.6666C497.999 86.5333 497.599 86.5333 495.064 83.9999C491.995 80.9333 491.861 79.9999 493.996 75.3333C495.864 71.1999 496.799 71.1999 501.736 74.9333ZM441.287 84.7999C457.033 97.5999 458.901 115.067 445.824 128.133C435.816 138.267 422.606 139.867 410.062 132.533C390.98 121.467 393.115 91.1999 413.665 81.9999C416.734 80.6666 421.271 80.1333 427.276 80.3999C434.882 80.6666 436.884 81.3333 441.287 84.7999ZM560.983 88.7999C563.519 91.1999 563.519 91.4666 561.784 94.7999C560.049 97.9999 555.646 98.1333 553.911 94.9333C552.977 93.0666 553.11 91.5999 554.578 89.5999C556.98 86.1333 558.181 85.9999 560.983 88.7999ZM306.112 98.7999C310.115 101.867 310.516 104.8 307.446 109.067C303.31 114.933 293.569 111.2 293.569 103.733C293.569 100.933 298.106 95.9999 300.774 95.9999C301.708 95.9999 304.11 97.1999 306.112 98.7999ZM382.707 104.267L387.377 107.067L383.508 110.267C378.837 114 377.369 114.133 374.3 110.667C371.498 107.6 372.565 101.333 375.901 101.333C376.969 101.333 380.038 102.667 382.707 104.267ZM480.252 114C480.252 116.667 477.45 121.333 475.848 121.333C475.448 121.333 473.98 120.267 472.512 118.8C471.178 117.467 468.909 115.6 467.575 114.8C465.307 113.467 465.307 113.2 467.175 112C468.376 111.333 470.778 109.6 472.512 108.133L475.715 105.467L477.983 108.4C479.318 110 480.385 112.533 480.252 114ZM260.876 110.133C263.544 112.8 263.011 117.2 259.942 119.2C254.604 122.4 249.266 113.333 254.337 109.733C257.406 107.467 258.207 107.6 260.876 110.133ZM604.218 114.267C605.019 116.4 606.086 120.267 606.62 122.933C607.554 128.533 608.889 129.867 614.226 131.2C621.565 132.933 619.43 140 611.557 140C609.556 140 608.355 140.933 607.955 142.933C604.352 160.667 603.684 161.867 600.615 158.133C599.414 156.8 596.746 144.8 596.479 140.533C596.479 140.4 594.077 140 591.274 139.467C582.601 138.133 582.734 131.867 591.541 129.867C596.479 128.8 597.813 127.333 597.813 122.533C597.813 118.267 600.348 110.667 601.816 110.667C602.35 110.667 603.418 112.267 604.218 114.267ZM211.369 124.4C216.173 127.867 210.835 135.6 205.898 132.533C202.696 130.533 202.295 127.467 204.831 124.8C207.499 122.267 208.3 122.133 211.369 124.4ZM410.329 141.867L415.667 146.533L409.662 149.2C400.855 153.2 399.921 152.933 400.855 146.933C402.189 140 402.99 137.333 404.057 137.333C404.591 137.333 407.393 139.333 410.329 141.867ZM542.168 152.933C543.369 157.2 544.704 163.2 545.237 166.267L546.172 172H552.31C558.848 172.133 563.118 174.267 563.118 177.733C563.118 180.133 556.58 182.667 550.308 182.667H546.038L544.437 192.267C540.967 214.4 535.897 214.533 532.294 192.533L530.826 183.067L524.02 182.267C520.284 181.733 516.281 180.533 515.213 179.467C512.144 176.267 516.548 172.4 524.287 171.333L530.559 170.533L532.16 161.333C535.096 143.733 538.832 140.8 542.168 152.933ZM331.599 162.667C350.281 168 368.562 180.267 379.638 195.067C385.242 202.4 385.643 203.333 383.374 204.133C382.04 204.667 379.771 205.2 378.437 205.2C376.969 205.333 374.434 206.667 372.699 208.267C368.696 212 368.696 218.133 372.565 222.267C375.101 224.933 376.702 225.333 385.643 225.333H395.784L397.385 233.067C398.319 237.333 398.987 246 398.987 252.4V264H380.572C361.223 264 358.02 264.8 354.818 270.8C352.683 274.8 355.618 282.267 360.422 284.667C362.424 285.733 364.692 286.667 365.226 286.533C365.76 286.4 371.898 286.4 378.704 286.533L391.114 286.667L387.377 293.6C379.371 308.533 359.355 326.133 342.808 332.8C335.469 335.867 312.384 340.667 311.183 339.467C310.916 339.067 312.517 337.2 314.919 335.067C325.061 326 319.189 310.667 305.578 310.667C299.44 310.8 292.368 314.133 280.225 323.067L270.216 330.4L263.544 326.933C259.942 324.933 252.069 318.533 246.197 312.667C228.049 294.667 219.643 274.133 219.643 248.667C219.776 234.933 220.843 228.667 225.781 216C236.99 187.2 264.212 166.133 298.639 160C307.313 158.4 320.524 159.467 331.599 162.667ZM167.601 186.667L170.003 199.733L178.943 200.533C188.951 201.6 193.888 204.933 191.353 209.067C189.485 211.867 185.348 213.067 176.675 213.2L169.869 213.333L169.069 220.267C168.134 229.2 165.733 240.133 164.265 242.533C161.062 247.733 156.925 238.133 154.123 218.933L153.189 213.333L146.384 213.2C125.3 213.067 123.832 202.4 144.649 200.4C149.453 200 153.456 199.467 153.456 199.2C153.456 196.267 157.86 177.733 159.461 173.867C161.462 169.067 161.729 168.8 163.464 171.2C164.532 172.533 166.4 179.467 167.601 186.667ZM456.633 179.6C461.036 183.6 458.901 190.667 453.163 190.667C450.094 190.667 445.691 187.067 445.691 184.4C445.691 181.2 448.893 177.333 451.562 177.333C453.03 177.333 455.299 178.267 456.633 179.6ZM681.08 184.533C694.424 191.067 703.498 200.133 709.77 213.2C713.906 221.867 714.574 224.8 714.974 235.467C715.908 255.333 709.903 270.8 696.959 282.667C674.274 303.467 640.514 303.333 618.63 282.667C612.758 277.067 605.819 266.667 605.819 263.333C605.819 263.067 607.955 264.133 610.49 266C617.963 270.933 623.834 272.4 635.043 271.733C652.123 270.667 663.599 262.933 670.672 247.467C673.741 240.667 674.141 238.533 673.607 229.467C672.94 217.867 670.538 212 662.932 203.333C656.393 195.867 647.987 190.933 637.311 188C629.438 185.867 629.305 185.733 632.508 184C639.98 180 646.786 178.667 658.662 179.067C669.737 179.467 671.873 179.867 681.08 184.533ZM476.115 220.267C476.916 222.667 478.117 227.467 479.051 230.8C480.519 236.667 480.919 237.067 485.99 237.733C498.667 239.467 497.065 247.867 484.122 248C481.987 248 480.385 248.133 480.385 248.267C478.917 258.8 476.115 270.267 474.647 271.733C471.712 274.667 470.511 271.6 466.374 251.2C465.84 248.933 464.506 248.267 459.569 247.6C456.233 247.333 452.496 246 451.295 244.8C449.294 242.8 449.294 242.533 451.295 240.533C452.496 239.333 456.233 238 459.569 237.733C464.906 237.067 465.84 236.533 466.508 233.467C470.377 216.133 473.58 211.733 476.115 220.267ZM550.842 230.933C552.977 233.067 552.844 235.333 550.308 237.867C548.707 239.467 547.639 239.6 545.638 238.667C543.236 237.333 542.168 232 544.036 230.267C545.371 228.8 549.107 229.2 550.842 230.933ZM118.761 252.933C119.429 255.733 120.496 260.267 120.897 262.933C121.697 267.333 122.231 268 125.434 268C127.435 268 130.504 269.067 132.239 270.533C134.908 272.667 135.041 273.333 133.573 275.2C132.506 276.4 129.57 277.733 126.768 278.133C121.964 278.933 121.697 279.2 120.897 285.333C119.696 294.133 117.561 300 115.425 300C113.29 300 111.155 294.133 109.954 285.333C109.154 279.2 108.887 278.933 104.083 278.133C101.281 277.733 98.3451 276.4 97.2776 275.2C95.8097 273.333 95.9432 272.667 98.612 270.533C100.347 269.067 103.416 268 105.417 268C109.02 268 109.287 267.467 110.221 261.6C111.155 254.8 114.091 248 116.093 248C116.76 248 117.961 250.267 118.761 252.933ZM751.403 294.667C754.205 296.267 754.739 300 752.337 302.4C748.067 306.667 741.662 301.333 744.598 296C746.199 292.933 747.667 292.667 751.403 294.667ZM79.7968 301.2C80.0637 302.8 79.53 305.067 78.5959 306.133C76.5943 308.667 70.7229 308 68.9882 305.2C67.12 302.267 68.8547 296.267 71.7904 295.6C74.993 294.8 79.2631 297.733 79.7968 301.2ZM184.948 308.133C184.548 310.4 184.147 313.067 184.147 314.133C184.147 315.067 182.012 316.267 179.21 316.667C163.197 319.333 155.057 326 151.454 339.333C148.385 351.067 143.048 358.933 135.175 363.6C129.036 367.2 127.835 367.333 106.752 368C82.5991 368.8 79.2631 369.733 72.8579 377.333C70.9898 379.733 68.7213 384.267 67.9206 387.467C66.1859 394.133 60.3145 400.933 55.2438 402.133C53.3756 402.667 51.6409 402.8 51.374 402.533C49.7727 400.8 53.7759 381.067 57.3788 374C61.9158 364.667 64.8515 361.6 73.9255 356.8C80.0637 353.6 81.665 353.333 98.612 353.333C108.62 353.333 119.028 352.667 121.697 351.867C128.903 350 135.175 342.933 137.977 333.733C144.782 312.267 155.057 304.133 175.34 304H185.882L184.948 308.133ZM453.43 310.933C455.832 313.333 455.299 316.933 452.229 319.2C448.626 321.6 445.958 320.667 444.89 316.533C443.422 310.933 449.427 306.933 453.43 310.933ZM718.443 325.733C719.244 331.2 719.644 331.6 725.249 333.067C728.585 334 731.254 335.467 731.254 336.4C731.254 339.2 728.318 341.333 724.315 341.333C720.045 341.333 720.045 341.467 717.91 352.4C716.442 359.333 713.906 363.067 711.771 360.933C711.371 360.533 710.037 356.133 708.836 351.067C706.701 342.4 706.434 342 702.297 341.6C693.09 340.667 693.623 334.8 703.231 332.4C706.3 331.6 708.035 330.267 708.302 328.533C708.569 327.2 709.636 323.333 710.837 320.133C712.972 314.267 712.972 314.267 715.241 317.067C716.575 318.667 718.043 322.533 718.443 325.733ZM211.903 336.267C214.438 338.8 213.905 345.067 210.969 346.667C209.501 347.333 207.766 348 206.966 348C204.831 348 201.495 344 201.495 341.333C201.495 336.133 208.434 332.8 211.903 336.267ZM180.411 372.933C181.745 374.133 182.813 376.133 182.813 377.467C182.813 380.267 179.343 384 176.808 384C174.139 384 170.803 380.267 170.803 377.333C170.803 374.667 174.139 370.667 176.408 370.667C177.208 370.667 179.077 371.6 180.411 372.933ZM319.99 373.6C323.993 377.6 318.522 384.933 314.118 381.2C312.25 379.6 311.583 374.4 313.184 372.933C314.519 371.467 318.255 371.867 319.99 373.6ZM378.704 381.6C381.239 384.133 380.572 389.067 377.636 390.667C372.565 393.467 366.961 387.733 369.63 382.533C371.231 379.733 376.302 379.2 378.704 381.6ZM763.813 396.667C767.149 400 767.683 403.867 765.414 407.333C760.611 414.667 748.334 408.4 751.403 400.267C752.204 398.267 753.538 396.267 754.339 395.733C757.008 394 761.678 394.533 763.813 396.667ZM145.049 410.133C143.715 417.867 137.977 426.267 131.038 430.267C125.033 433.867 123.966 434 101.414 434.667C69.255 435.733 65.7856 437.6 60.8483 456.667C59.247 462.933 57.7792 465.6 53.9094 469.067C49.3724 472.933 48.7052 473.2 47.6377 471.2C46.9705 470 46.7036 463.733 46.9705 457.467C47.7711 444.4 50.4399 437.6 58.3129 429.867C66.4528 421.733 70.0557 420.8 96.3435 420C122.364 419.2 124.366 418.667 130.104 409.6C132.506 405.867 133.44 405.467 139.311 405.333H145.85L145.049 410.133ZM779.292 437.333C782.895 440.933 782.628 444.8 778.625 447.467C774.355 450.267 771.152 449.467 768.75 445.2C767.016 442 767.016 441.333 769.017 438.133C771.82 434 775.689 433.733 779.292 437.333ZM83.2663 455.467C87.2695 459.467 85.001 465.333 79.3965 465.333C75.7936 465.333 73.3917 462.933 73.3917 459.333C73.3917 453.733 79.2631 451.467 83.2663 455.467ZM74.0589 510C74.0589 513.067 73.3917 514.133 71.2567 514.4C67.2534 514.933 64.8515 511.6 66.7197 508C69.1216 503.6 74.0589 504.933 74.0589 510Z" fill="white"/>
<path d="M419.671 96.2666C407.127 103.067 411.531 121.333 425.676 121.333C439.42 121.333 444.357 102.933 432.348 96.6666C427.811 94.2666 423.407 94.1333 419.671 96.2666Z" fill="white"/>
<path d="M298.373 166.8C294.236 171.733 293.97 175.733 297.572 180.4C300.775 184.4 306.246 185.867 313.719 184.667C324.527 182.8 327.73 174 320.391 166.533C317.055 163.2 315.453 162.667 309.182 162.667C302.643 162.667 301.442 163.067 298.373 166.8Z" fill="white"/>
<path d="M233.653 218.8C229.917 220.267 226.581 224.4 225.247 229.2C224.179 232.933 226.981 239.2 230.184 240.533C233.92 241.867 272.885 241.467 277.288 239.867C283.026 237.867 286.362 230.667 284.094 225.067C281.425 218.667 276.354 217.333 255.271 217.467C245.129 217.467 235.388 218.133 233.653 218.8Z" fill="white"/>
<path d="M530.159 366.267C527.09 369.867 524.288 373.067 523.754 373.6C523.22 374.133 534.963 387.333 549.908 402.933C564.854 418.533 579.665 433.867 582.735 437.067L588.206 442.933L595.545 431.733C612.225 406.267 628.505 380.133 628.505 378.8C628.505 378.267 625.836 375.2 622.366 372L616.362 366L613.693 369.333C612.225 371.2 606.354 379.2 600.482 387.333C594.744 395.333 588.873 403.333 587.538 405.067L585.136 408L561.117 384C547.907 370.8 536.831 360 536.431 360C536.03 360 533.228 362.8 530.159 366.267Z" fill="white"/>
<path d="M493.596 440.4C477.85 451.6 462.772 462.267 460.236 464.267L455.699 468L461.704 473.867L467.709 479.733L485.723 467.733C518.817 445.6 536.431 433.2 536.431 432.267C536.297 430.4 525.889 420 524.154 420.133C523.22 420.133 509.476 429.333 493.596 440.4Z" fill="white"/>
<path d="M412.998 506C406.726 508.933 404.858 510.8 398.052 522C394.583 527.733 389.379 534.267 386.576 536.4C382.173 540 380.438 540.533 370.43 541.067C363.091 541.467 354.551 540.8 345.743 539.333C335.869 537.6 331.732 537.333 330.665 538.4C326.661 542.4 335.068 547.6 356.952 554.133C363.891 556.133 369.629 558.267 369.629 558.8C369.629 559.333 365.092 561.333 359.488 563.2C339.605 569.867 333.6 575.467 333.6 587.333C333.6 609.067 360.422 622.4 383.507 612.267C391.914 608.533 400.588 600 404.724 591.467C406.726 587.467 408.327 583.467 408.327 582.8C408.327 582 408.861 581.333 409.528 581.333C410.195 581.333 411.263 585.2 411.663 590C412.864 600.4 412.464 601.2 399.787 624C390.846 640.133 388.178 644.133 374.967 662.667C371.497 667.467 368.295 672.133 367.761 673.067C366.427 675.467 372.298 677.467 386.309 679.2L398.319 680.8L399.253 701.333C399.653 712.667 400.454 727.067 400.988 733.333L401.789 744.8L391.38 746.533C367.628 750.4 342.808 761.2 323.592 776C319.856 778.933 316.12 781.333 315.452 781.333C312.917 781.333 298.906 775.2 298.906 774.133C298.906 773.467 305.978 765.6 314.652 756.8C332.533 738.4 344.276 724.667 344.276 722C344.276 718.667 338.938 718.4 329.864 721.2C311.583 726.667 290.099 746 279.69 766.4L277.422 770.667L270.883 767.333C267.28 765.6 264.078 763.467 263.678 762.8C262.877 761.6 269.682 748.667 275.02 741.2L277.689 737.333H265.012H252.335L245.53 726C241.793 719.867 238.19 714.4 237.657 714C236.456 713.333 228.449 730.267 227.248 736.133C226.848 738.267 226.181 740 225.647 740C225.247 740 220.309 735.733 214.838 730.533C202.562 718.933 181.879 703.2 169.068 695.733C153.322 686.533 124.499 675.067 111.555 672.667C105.017 671.6 104.483 670.667 124.766 692.533C183.213 755.733 257.94 797.6 342.274 814.533C375.234 821.2 420.47 823.067 455.698 819.333C543.903 810 621.832 774.667 686.817 714.533C700.428 701.867 729.118 670.8 728.051 669.733C725.649 667.2 669.871 701.333 636.911 725.6C629.705 730.933 627.17 731.733 627.17 729.067C627.17 726.933 617.562 706.667 616.628 706.667C616.094 706.667 611.824 713.467 607.02 721.6L598.346 736.667L583.401 738L568.322 739.333L574.861 748.8L581.399 758.267L573.393 762.533C568.989 764.8 565.253 766.533 565.12 766.267C564.986 766.133 562.317 762.133 559.115 757.333C550.308 744.133 540.7 735.6 527.756 729.2C518.015 724.4 514.813 723.467 505.872 722.933C496.932 722.4 495.33 722.667 494.53 724.667C493.462 727.6 497.866 732.533 516.28 749.333C543.502 774.133 542.568 773.2 540.433 774.667C539.366 775.333 534.028 777.467 528.557 779.333L518.816 782.533L510.409 775.6C493.329 761.467 473.446 752 451.562 747.6L437.684 744.667V738C437.684 721.6 440.753 682 442.221 681.067C443.022 680.533 445.157 680 446.891 680C449.961 680 467.174 676.133 468.108 675.333C468.776 674.8 456.099 635.733 448.226 614.267L441.554 596L443.555 580.933C444.756 572.8 445.824 564 445.957 561.467C446.358 556.933 446.625 556.8 463.838 549.333C481.586 541.733 504.538 529.333 511.61 523.6C514.279 521.467 515.213 519.733 514.679 518.267C513.478 514.933 509.342 515.467 500.668 519.867C489.859 525.333 462.904 536.533 451.028 540.4C440.219 544 424.473 547.333 423.406 546.133C421.938 544.8 424.34 541.333 426.608 541.333C432.747 541.333 440.353 530.933 440.353 522.667C440.353 508.4 426.208 499.733 412.998 506ZM424.874 690.267C425.274 695.333 425.941 709.333 426.475 721.6L427.276 744H419.67H411.93L412.864 720.267C413.398 707.333 414.065 693.2 414.599 688.933C415.399 681.333 415.399 681.333 419.67 681.333H424.073L424.874 690.267Z" fill="white"/>
<path d="M506.274 614.933C505.339 616.4 506.54 630.667 508.675 641.6C509.876 648.4 510.544 649.333 513.212 649.333C518.683 649.333 522.687 646.933 523.621 643.2C524.155 641.2 526.423 636 528.558 631.6C530.693 627.333 532.428 623.2 532.428 622.667C532.428 620 507.608 612.667 506.274 614.933Z" fill="white"/>
<path d="M325.327 629.067C321.724 630 318.922 631.6 318.922 632.4C318.922 633.333 320.256 638.4 321.724 643.6C323.993 650.933 325.194 653.333 327.062 653.333C329.864 653.333 332.666 642.133 331.999 633.067L331.599 627.2L325.327 629.067Z" fill="white"/>
<path d="M538.299 635.333C536.298 639.867 535.097 645.2 535.097 649.2C535.097 656.4 536.164 655.733 521.486 658.667C517.216 659.467 513.746 660.533 513.746 660.933C513.746 661.6 520.685 673.2 522.687 675.867C522.82 676.133 528.425 675.6 535.097 674.667L547.106 672.933L548.574 667.6C549.375 664.667 552.31 657.333 555.246 651.333C558.048 645.2 560.45 639.867 560.45 639.467C560.45 638.4 544.838 628 543.103 628C542.302 628 540.167 631.333 538.299 635.333Z" fill="white"/>
<path d="M301.174 640.133C297.705 642.4 294.903 644.533 294.903 644.8C294.903 645.2 296.371 648.4 298.239 652C302.242 659.867 302.375 662.667 299.173 666.667C295.97 670.667 294.636 669.6 289.432 660C287.163 655.6 284.761 652 284.361 652C283.827 652 281.158 654.267 278.489 657.067C272.885 662.8 272.618 661.6 283.293 675.6C287.697 681.467 288.898 682.4 290.899 681.333C292.234 680.533 299.306 680 306.512 680H319.723L323.326 672.667C325.327 668.533 326.928 664.933 326.928 664.667C326.928 664.267 324.26 664 321.057 664H315.319L312.917 651.6C310.248 637.867 309.715 636 308.38 636C307.846 636 304.51 637.867 301.174 640.133Z" fill="white"/>
<path d="M564.587 658.667C561.651 664.533 558.582 672.267 557.648 675.867L556.047 682.267L544.838 683.867C528.691 686.133 529.092 685.733 535.497 694.8C539.9 700.933 541.635 702.533 543.77 702C545.238 701.6 551.51 700.933 557.648 700.533C563.786 700 569.257 698.933 569.925 698.133C570.592 697.333 574.595 689.6 578.999 681.067L586.872 665.467L580.733 658.4C570.325 646.267 570.592 646.267 564.587 658.667Z" fill="white"/>
<path d="M261.677 676.267C256.339 682.533 255.939 681.333 268.215 697.2C274.887 706 275.955 706.8 279.424 706.133C281.559 705.733 287.698 705.333 293.035 705.333H302.776L308.247 698C311.183 694 313.585 690.4 313.585 690C313.585 689.6 305.979 689.333 296.638 689.467L279.558 689.733L273.953 681.333C270.884 676.667 267.815 672.4 267.281 671.867C266.747 671.333 264.212 673.2 261.677 676.267Z" fill="white"/>
<path d="M593.008 678.933C590.206 683.733 584.335 696.533 581.265 704.133L579.397 708.933L564.585 710.667C556.445 711.733 549.773 712.933 549.773 713.467C549.773 714 552.576 717.867 555.912 722C560.716 727.867 562.717 729.333 564.986 728.933C566.454 728.533 572.992 727.733 579.264 727.333L590.74 726.4L599.68 711.6C605.685 701.733 608.354 695.867 607.954 694C607.553 692.533 604.617 687.6 601.415 682.933L595.41 674.533L593.008 678.933Z" fill="white"/>
<path d="M246.198 697.333L242.729 702.933L251.669 716.133L260.743 729.333H270.751C284.629 729.333 286.23 728.667 291.568 721.067L296.372 714.533L282.627 714.8L268.883 715.067L260.876 704C256.473 697.867 252.069 692.667 251.269 692.4C250.335 692 248.066 694.267 246.198 697.333Z" fill="white"/>
</svg>
