<svg width="52" height="28" viewBox="0 0 52 28" fill="none" xmlns="http://www.w3.org/2000/svg">
<path d="M47.6667 0H19.5C17.1167 0 15.1667 1.93846 15.1667 4.30769V23.6923C15.1667 26.0831 17.1167 28 19.5 28H47.6667C50.0717 28 52 26.0831 52 23.6923V4.30769C52 1.93846 50.0717 0 47.6667 0ZM47.6667 23.6923H19.5V7.90462L33.5833 15.0769L47.6667 7.90462V23.6923ZM33.5833 11.4369L19.5 4.30769H47.6667L33.5833 11.4369ZM10.8333 23.6923C10.8333 24.0585 10.8983 24.4031 10.9417 24.7692H2.16667C0.970667 24.7692 0 23.8 0 22.6154C0 21.4308 0.970667 20.4615 2.16667 20.4615H10.8333V23.6923ZM6.5 3.23077H10.9417C10.8983 3.59692 10.8333 3.94154 10.8333 4.30769V7.53846H6.5C5.30833 7.53846 4.33333 6.56923 4.33333 5.38462C4.33333 4.2 5.30833 3.23077 6.5 3.23077ZM2.16667 14C2.16667 12.8154 3.14167 11.8462 4.33333 11.8462H10.8333V16.1538H4.33333C3.14167 16.1538 2.16667 15.1846 2.16667 14Z" fill="white"/>
</svg>
