<svg width="30" height="900" viewBox="0 0 30 900" fill="none" xmlns="http://www.w3.org/2000/svg">
<line x1="15.5" x2="15.5" y2="900" stroke="#70FF00" stroke-width="5"/>
<path d="M28 240.082C28 247.382 22.3301 253.164 15.5 253.164C8.66992 253.164 3 247.382 3 240.082C3 232.782 8.66992 227 15.5 227C22.3301 227 28 232.782 28 240.082Z" fill="#070707" stroke="#70FF00" stroke-width="4"/>
<path d="M27 547.67C27 554.97 21.3301 560.752 14.5 560.752C7.66992 560.752 2 554.97 2 547.67C2 540.37 7.66992 534.588 14.5 534.588C21.3301 534.588 27 540.37 27 547.67Z" fill="#070707" stroke="#70FF00" stroke-width="4"/>
<path d="M28 45.134C28 52.434 22.3301 58.2162 15.5 58.2162C8.66992 58.2162 3 52.434 3 45.134C3 37.8339 8.66992 32.0518 15.5 32.0518C22.3301 32.0518 28 37.8339 28 45.134Z" fill="#070707" stroke="#70FF00" stroke-width="4"/>
</svg>
